<?xml version="1.0" encoding="UTF-8"?>
<svg xmlns="http://www.w3.org/2000/svg" width="1200" height="800" viewBox="0 0 1200 800" fill="none">
  <g clip-path="url(#clip0_166_2)">
    <rect width="1200" height="800" fill="white"></rect>
    <g clip-path="url(#clip1_166_2)">
      <mask id="mask0_166_2" style="mask-type:luminance" maskUnits="userSpaceOnUse" x="116" y="257" width="247" height="285">
        <path d="M362.482 257H116V542H362.482V257Z" fill="white"></path>
      </mask>
      <g mask="url(#mask0_166_2)">
        <path fill-rule="evenodd" clip-rule="evenodd" d="M151.17 348.571L274.484 277.285L239.314 257L116 328.286V470.714L239.314 542V501.286L151.17 450.284V348.571Z" fill="url(#paint0_linear_166_2)"></path>
        <path d="M239.313 399.428V440.143L327.312 389.286V450.285L239.313 501.142V541.856L362.627 470.57V328.287L239.313 399.428Z" fill="#666666"></path>
        <path fill-rule="evenodd" clip-rule="evenodd" d="M151.17 348.571V450.285L186.486 430V369.001L274.484 317.999V277.285L151.17 348.571Z" fill="url(#paint1_linear_166_2)"></path>
        <path fill-rule="evenodd" clip-rule="evenodd" d="M291.997 409.715V429.999L327.312 450.284V389.285L291.997 409.715Z" fill="url(#paint2_linear_166_2)"></path>
        <path d="M203.999 379.143V419.857L239.169 440.142V399.427L203.999 379.143Z" fill="#F99B52"></path>
        <path fill-rule="evenodd" clip-rule="evenodd" d="M151.17 450.285L239.314 501.286L327.312 450.285L291.997 430L239.314 460.572L186.486 430L151.17 450.285Z" fill="url(#paint3_linear_166_2)"></path>
        <path d="M239.313 399.428V440.143L327.312 389.286V450.285L239.313 501.287V542.001L362.482 470.715V328.287L239.313 399.428Z" fill="url(#paint4_linear_166_2)"></path>
        <path d="M203.999 379.144L239.169 399.428L362.483 328.142L327.312 307.857L203.999 379.144Z" fill="url(#paint5_linear_166_2)"></path>
      </g>
      <path d="M486.91 470.772C474.383 470.914 462.044 467.713 451.161 461.499C440.519 455.435 431.728 446.584 425.731 435.897C419.491 424.747 416.296 412.149 416.468 399.37C416.294 386.586 419.436 373.975 425.587 362.77C431.38 352.194 439.974 343.421 450.423 337.414C461.294 331.171 473.641 327.969 486.172 328.141C495.25 328.039 504.258 329.743 512.673 333.155C520.36 336.075 527.358 340.56 533.225 346.325C538.594 351.586 542.709 357.989 545.267 365.06L519.895 377.259C517.545 370.51 513.135 364.671 507.289 360.568C501.138 356.173 493.728 353.895 486.172 354.077C478.609 353.967 471.165 355.974 464.679 359.872C458.415 363.67 453.386 369.207 450.206 375.81C446.741 383.171 445.027 391.235 445.198 399.37C445.047 407.579 446.827 415.709 450.394 423.103C453.776 429.679 458.905 435.193 465.215 439.041C471.783 442.932 479.294 444.937 486.925 444.836C493.052 444.895 499.119 443.63 504.713 441.127C510.02 438.849 514.625 435.199 518.057 430.55C521.406 425.779 523.154 420.066 523.051 414.235V413.859H486.172L472.77 392.502H551.751V404.368C551.751 418.713 548.664 430.893 542.488 440.91C536.734 450.53 528.367 458.314 518.361 463.353C508.606 468.266 497.831 470.808 486.91 470.772Z" fill="black"></path>
      <path d="M588.774 470.772C577.774 470.772 569.129 468.173 562.838 462.976C556.542 457.789 554.154 450.617 554.154 441.46C554.154 432.767 556.397 425.754 562.317 420.321C568.236 414.887 577.384 410.99 589.368 409.005L617.345 404.556V401.775C617.361 399.919 616.952 398.084 616.149 396.411C615.346 394.738 614.171 393.272 612.713 392.125C609.235 389.402 604.893 388.024 600.483 388.242C595.777 388.166 591.169 389.592 587.327 392.313C583.572 394.98 580.728 398.739 579.178 403.079L556.947 392.502C559.9 384.105 565.71 377.016 573.36 372.478C581.938 367.414 591.757 364.845 601.713 365.059C609.438 364.914 617.098 366.498 624.133 369.696C630.406 372.467 635.744 376.996 639.504 382.736C643.238 388.394 645.176 395.051 645.061 401.833V468.54H619.154V459.079C615.361 462.931 610.819 465.963 605.809 467.99C600.344 469.933 594.573 470.875 588.774 470.772ZM582.044 440.533C581.981 441.919 582.251 443.299 582.83 444.56C583.409 445.82 584.281 446.923 585.373 447.777C587.976 449.596 591.102 450.512 594.274 450.385C597.307 450.513 600.334 450.019 603.169 448.933C606.004 447.846 608.587 446.191 610.759 444.068C612.872 441.997 614.537 439.514 615.653 436.772C616.768 434.031 617.309 431.09 617.243 428.13V424.972L594.274 429.058C590.892 429.488 587.69 430.83 585.011 432.941C584.006 433.923 583.222 435.108 582.71 436.417C582.199 437.726 581.972 439.129 582.044 440.533Z" fill="black"></path>
      <path d="M650.417 367.277H676.353V379.709C678.692 374.892 682.617 371.028 687.468 368.769C692.84 366.198 698.74 364.928 704.692 365.06C711.003 364.976 717.239 366.438 722.856 369.32C728.054 371.716 732.437 375.585 735.462 380.448C742.622 370.189 753.057 365.06 766.768 365.06C773.507 364.922 780.161 366.582 786.047 369.871C791.674 373.042 796.294 377.737 799.377 383.418C802.673 389.568 804.333 396.464 804.197 403.442V468.541H776.408V409.382C776.408 403.442 774.801 398.742 771.588 395.284C768.375 391.826 764.115 390.097 758.808 390.097C756.392 389.975 753.978 390.375 751.73 391.27C749.483 392.165 747.454 393.534 745.782 395.284C742.762 398.723 741.252 403.422 741.252 409.382V468.541H713.463V409.382C713.463 403.442 711.856 398.742 708.643 395.284C705.43 391.826 701.17 390.097 695.863 390.097C693.447 389.975 691.033 390.375 688.785 391.27C686.538 392.165 684.509 393.534 682.837 395.284C679.759 398.752 678.215 403.451 678.205 409.382V468.541H650.417V367.277Z" fill="black"></path>
      <path d="M809.595 367.277H835.532V379.709C837.863 374.886 841.791 371.02 846.647 368.769C852.018 366.198 857.918 364.928 863.871 365.06C870.177 364.974 876.409 366.436 882.02 369.32C887.233 371.711 891.631 375.58 894.67 380.448C901.83 370.189 912.265 365.06 925.976 365.06C932.71 364.924 939.359 366.584 945.24 369.871C950.875 373.037 955.501 377.734 958.585 383.418C961.881 389.568 963.541 396.464 963.404 403.442V468.541H935.615V409.382C935.615 403.442 934.009 398.742 930.796 395.284C929.175 393.536 927.19 392.164 924.982 391.268C922.774 390.372 920.395 389.972 918.016 390.097C915.599 389.972 913.185 390.371 910.937 391.266C908.688 392.161 906.66 393.532 904.99 395.284C901.892 398.752 900.348 403.451 900.358 409.382V468.541H872.569V409.382C872.569 403.442 870.963 398.742 867.75 395.284C866.129 393.536 864.144 392.164 861.936 391.268C859.727 390.372 857.349 389.972 854.969 390.097C852.553 389.972 850.138 390.371 847.89 391.266C845.642 392.161 843.614 393.532 841.943 395.284C838.846 398.752 837.302 403.451 837.312 409.382V468.541H809.523L809.595 367.277Z" fill="black"></path>
      <path d="M1003.68 470.771C992.694 470.771 984.048 468.173 977.748 462.976C971.447 457.779 968.301 450.607 968.311 441.46C968.17 437.504 968.889 433.565 970.418 429.915C971.948 426.265 974.251 422.991 977.169 420.32C983.218 414.756 992.235 410.985 1004.22 409.004L1032.17 404.556V401.774C1032.19 399.919 1031.78 398.085 1030.98 396.412C1030.18 394.739 1029.01 393.272 1027.55 392.125C1024.07 389.404 1019.73 388.026 1015.32 388.242C1010.61 388.161 1006 389.588 1002.16 392.313C998.406 394.976 995.56 398.736 994.016 403.078L971.784 392.501C974.756 384.08 980.612 376.986 988.313 372.477C996.887 367.416 1006.7 364.847 1016.65 365.059C1024.38 364.91 1032.04 366.495 1039.07 369.695C1045.35 372.462 1050.7 376.992 1054.46 382.736C1058.19 388.396 1060.12 395.053 1060 401.832V468.54H1034.08V459.079C1030.28 462.924 1025.74 465.956 1020.73 467.989C1015.26 469.932 1009.49 470.875 1003.68 470.771ZM997.026 440.533C996.963 441.918 997.233 443.299 997.812 444.559C998.391 445.82 999.263 446.923 1000.35 447.777C1002.95 449.597 1006.07 450.514 1009.24 450.385C1012.27 450.515 1015.3 450.021 1018.14 448.935C1020.97 447.848 1023.56 446.192 1025.73 444.068C1027.84 441.997 1029.5 439.514 1030.62 436.772C1031.74 434.031 1032.28 431.089 1032.21 428.13V424.971L1009.24 429.057C1005.86 429.494 1002.66 430.835 999.979 432.94C998.979 433.925 998.198 435.111 997.69 436.42C997.181 437.728 996.954 439.13 997.026 440.533Z" fill="black"></path>
    </g>
  </g>
  <defs>
    <linearGradient id="paint0_linear_166_2" x1="288.118" y1="199.305" x2="50.2895" y2="705.993" gradientUnits="userSpaceOnUse">
      <stop offset="0.15" stop-color="#2B0AFF"></stop>
      <stop offset="0.59" stop-color="#E40DF2"></stop>
      <stop offset="0.78" stop-color="#F99B52"></stop>
    </linearGradient>
    <linearGradient id="paint1_linear_166_2" x1="302.258" y1="228.761" x2="72.953" y2="504.042" gradientUnits="userSpaceOnUse">
      <stop stop-color="#F99B52"></stop>
      <stop offset="0.52" stop-color="#FF5B8A"></stop>
      <stop offset="1" stop-color="#2B0AFF"></stop>
    </linearGradient>
    <linearGradient id="paint2_linear_166_2" x1="332.537" y1="476.843" x2="300.952" y2="384.322" gradientUnits="userSpaceOnUse">
      <stop stop-color="#F99B52"></stop>
      <stop offset="0.52" stop-color="#FF5B8A"></stop>
      <stop offset="1" stop-color="#2B0AFF"></stop>
    </linearGradient>
    <linearGradient id="paint3_linear_166_2" x1="151.17" y1="465.643" x2="327.312" y2="465.643" gradientUnits="userSpaceOnUse">
      <stop stop-color="#F99B52"></stop>
      <stop offset="0.52" stop-color="#FF5B8A"></stop>
      <stop offset="1" stop-color="#2B0AFF"></stop>
    </linearGradient>
    <linearGradient id="paint4_linear_166_2" x1="349.297" y1="237.339" x2="271.402" y2="554.886" gradientUnits="userSpaceOnUse">
      <stop offset="0.15" stop-color="#2B0AFF"></stop>
      <stop offset="0.59" stop-color="#E40DF2"></stop>
      <stop offset="0.78" stop-color="#F6846D"></stop>
    </linearGradient>
    <linearGradient id="paint5_linear_166_2" x1="236.491" y1="386.75" x2="495.1" y2="204.031" gradientUnits="userSpaceOnUse">
      <stop stop-color="#2B0AFF"></stop>
      <stop offset="0.45" stop-color="#E93ABF"></stop>
      <stop offset="1" stop-color="#FF6C98"></stop>
    </linearGradient>
    <clipPath id="clip0_166_2">
      <rect width="1200" height="800" fill="white"></rect>
    </clipPath>
    <clipPath id="clip1_166_2">
      <rect width="944" height="285" fill="white" transform="translate(116 257)"></rect>
    </clipPath>
  </defs>
</svg>
